<?xml version="1.0" standalone="no"?>
<!DOCTYPE svg PUBLIC "-//W3C//DTD SVG 20010904//EN"
 "http://www.w3.org/TR/2001/REC-SVG-20010904/DTD/svg10.dtd">
<svg version="1.0" xmlns="http://www.w3.org/2000/svg"
 width="424.000000pt" height="424.000000pt" viewBox="0 0 424.000000 424.000000"
 preserveAspectRatio="xMidYMid meet">
<metadata>
Created by potrace 1.14, written by Peter Selinger 2001-2017
</metadata>
<g transform="translate(0.000000,424.000000) scale(0.100000,-0.100000)"
fill="#000000" stroke="none">
<path d="M0 2125 c0 -1190 4 -2095 9 -2095 8 0 251 98 296 120 24 11 172 68
275 105 41 14 84 30 95 35 39 17 302 95 351 104 10 2 46 11 79 19 33 8 78 18
100 23 22 4 45 8 50 9 15 4 264 44 310 50 22 3 51 8 65 10 14 3 43 8 65 11
368 54 613 145 777 290 34 30 138 156 138 167 0 4 13 28 28 54 62 106 139 323
227 643 114 415 201 601 414 888 52 70 97 129 100 132 3 3 19 23 36 45 16 22
32 42 35 45 7 6 126 162 153 200 9 14 35 52 57 85 22 33 45 68 52 77 65 94
282 518 392 768 38 85 76 173 87 195 10 22 25 57 33 78 l15 37 -2120 0 -2119
0 0 -2095z"/>
</g>
</svg>
