<svg width="369" height="369" viewBox="0 0 369 369" fill="none" xmlns="http://www.w3.org/2000/svg">
<path d="M0 0C68.0301 7.69968 135.963 15.3019 184.5 49.4144C233.037 83.6244 261.984 144.15 289.469 201.849C317.052 259.548 342.977 314.225 369 369H0V0Z" fill="#FFEACF"/>
<path d="M0 123C45.3209 128.068 90.6418 133.234 123 155.943C155.358 178.75 174.656 219.1 192.979 257.598C211.303 295.999 228.651 332.548 246 369H0V123Z" fill="#FFC270"/>
<path d="M0 246C22.7092 248.534 45.3209 251.068 61.5 262.471C77.6791 273.875 87.328 294.05 96.4897 313.25C105.651 332.548 114.326 350.774 123 369H0V246Z" fill="#FBAE3C"/>
</svg>
