<svg width="377" height="382" viewBox="0 0 377 382" fill="none" xmlns="http://www.w3.org/2000/svg">
<path d="M377 -1.04537e-05C322.995 0.581673 268.907 1.16336 232.849 29.0842C196.709 56.9219 178.516 112.099 148.113 149.908C117.709 187.718 75.0949 208.16 48.379 243.975C21.7452 279.79 11.0097 330.895 0.27417 382H377V-1.04537e-05Z" fill="#CAE4DA"/>
<path d="M377 127.306C340.942 127.721 304.966 128.137 280.872 146.751C256.779 165.281 244.65 202.094 224.408 227.272C204.167 252.451 175.73 266.162 157.947 290.011C140.163 313.86 133.034 347.93 125.822 382H377V127.306Z" fill="#5EAF94"/>
<path d="M377 254.694C358.971 254.861 340.942 255.027 328.977 264.334C316.93 273.641 310.866 292.005 300.704 304.636C290.542 317.267 276.365 324.081 267.432 335.964C258.582 347.93 254.976 364.965 251.452 382H377V254.694Z" fill="#009473"/>
</svg>
