<svg width="424" height="416" viewBox="0 0 424 416" fill="none" xmlns="http://www.w3.org/2000/svg">
<path d="M0 415.76C39.2917 399.141 78.5834 382.523 123.963 373.757C169.342 364.991 220.808 363.986 249.216 335.588C277.625 307.19 283.066 251.399 299.207 211.222C315.348 171.045 342.281 146.664 364.878 113.427C387.475 80.0981 405.738 38.0947 424 -3.99999H0V415.76Z" fill="#FFD0D6"/>
<path d="M0 275.87C26.1945 264.73 52.389 253.682 82.6417 247.838C112.894 241.994 147.206 241.355 166.114 222.362C185.114 203.46 188.711 166.205 199.502 139.451C210.294 112.696 228.187 96.4429 243.313 74.2542C258.348 52.0654 270.523 24.0328 282.697 -3.99995H0V275.87Z" fill="#FF6A89"/>
<path d="M0 135.89C13.0972 130.411 26.1945 124.841 41.3209 121.919C56.4472 118.997 73.6028 118.632 83.1029 109.227C92.5108 99.7301 94.3554 81.1025 99.705 67.771C105.147 54.3482 114.094 46.2214 121.657 35.1727C129.128 24.0327 135.215 10.062 141.303 -4.00001H0V135.89Z" fill="#FF0066"/>
</svg>
