<svg width="433" height="434" viewBox="0 0 433 434" fill="none" xmlns="http://www.w3.org/2000/svg">
<path d="M433 433.2C397.019 398.161 361.037 363.215 318.651 352.289C276.265 341.363 227.473 354.456 183.863 343.153C140.252 331.755 101.821 295.962 82.7005 254.706C63.5795 213.545 63.7679 166.92 53.2184 123.591C42.5747 80.263 21.2874 40.2315 0 0.199951H433V433.2Z" fill="#D7D6FF"/>
<path d="M433 288.898C408.981 265.538 384.962 242.179 356.705 234.926C328.447 227.579 295.951 236.339 266.94 228.804C237.834 221.268 212.214 197.344 199.498 169.839C186.688 142.43 186.782 111.346 179.812 82.4294C172.748 53.6067 158.525 26.8562 144.302 0.199951H433V288.898Z" fill="#7789FF"/>
<path d="M433 144.502C421.038 132.822 408.981 121.236 394.852 117.563C380.724 113.89 364.523 118.317 349.923 114.549C335.417 110.687 322.607 98.8188 316.202 85.0668C309.891 71.3148 309.891 55.7732 306.406 41.3618C302.827 26.8562 295.762 13.5752 288.698 0.199951H433V144.502Z" fill="#0066FF"/>
</svg>
